<?xml version="1.0" encoding="utf-8"?>
<!-- Generator: Adobe Illustrator 21.0.0, SVG Export Plug-In . SVG Version: 6.00 Build 0)  -->
<svg version="1.1" id="Слой_1" xmlns="http://www.w3.org/2000/svg" xmlns:xlink="http://www.w3.org/1999/xlink" x="0px" y="0px"
	 viewBox="0 0 595.3 841.9" style="enable-background:new 0 0 595.3 841.9;" xml:space="preserve">
<style type="text/css">
	.st0{fill:#000206;}
</style>
<path class="st0" d="M328,401.8c-1-1.7-3.1-2.2-4.8-1.3l-8.3,4.8l-30.2-13.1c-0.1,0-0.1,0-0.2-0.1c-0.1,0-0.2-0.1-0.4-0.1
	c-0.1,0-0.2,0-0.3-0.1c-0.1,0-0.2,0-0.3,0c-0.1,0-0.2,0-0.3,0c-0.1,0-0.2,0-0.3,0c-0.1,0-0.2,0-0.3,0.1c-0.1,0-0.2,0.1-0.3,0.1
	c-0.1,0-0.2,0.1-0.3,0.2c-0.1,0-0.1,0.1-0.2,0.1l-5.9,3.5c-1,0.6-1.6,1.6-1.7,2.7c-0.1,1.1,0.3,2.2,1.2,3l18.4,16.2l-12.3,7.2
	l-13.1-3.4l-1.8,6.8l11,2.9l-2.9,11.1l6.8,1.8l3.4-13.1l12.3-7.2l4.9,24.1c0.1,0.4,0.2,0.7,0.4,1.1c0.4,0.6,0.9,1.1,1.6,1.4
	c1,0.5,2.2,0.4,3.2-0.2l5.9-3.5c0.1,0,0.1-0.1,0.2-0.1c0.1-0.1,0.2-0.1,0.3-0.2c0.1-0.1,0.2-0.2,0.2-0.2c0.1-0.1,0.2-0.2,0.2-0.3
	c0.1-0.1,0.1-0.2,0.2-0.3c0.1-0.1,0.1-0.2,0.2-0.3c0.1-0.1,0.1-0.2,0.1-0.3c0-0.1,0.1-0.2,0.1-0.3c0-0.1,0.1-0.3,0.1-0.4
	c0-0.1,0-0.1,0-0.2l3.4-32.7l8.5-4.9C328.5,405.6,329,403.4,328,401.8z M300,414.1l-16.5-14.6l0.2-0.1l23.8,10.3L300,414.1z
	 M308.1,441.7l-0.2,0.1l-4.4-21.6l7.3-4.3L308.1,441.7z"/>
</svg>
