<?xml version="1.0" encoding="utf-8"?>
<!-- Generator: Adobe Illustrator 21.0.0, SVG Export Plug-In . SVG Version: 6.00 Build 0)  -->
<svg version="1.1" id="Слой_1" xmlns="http://www.w3.org/2000/svg" xmlns:xlink="http://www.w3.org/1999/xlink" x="0px" y="0px"
	 viewBox="0 0 595.3 841.9" style="enable-background:new 0 0 595.3 841.9;" xml:space="preserve">
<style type="text/css">
	.st0{fill:#000703;}
</style>
<g>
	<path class="st0" d="M350.3,422.3c0-5.7-6.3-10.3-11.6-13c-4.3-2.3-10.4-4.6-15.8-5.1c-5.9-4.8-17.8-11.2-24.1-11.2h-14.7
		c-13,0-22.6,6.7-26.1,9.5c-2.1,1.7-4.8,4.9-6.9,8.3c-2.8,4.4-4.2,8.2-4.2,11.4v16.5h15.3c1.4,5.9,6.7,10.3,13,10.3
		c6.1,0,11.2-4.1,12.8-9.6h17.5c1.6,5.6,6.8,9.6,12.8,9.6c6.3,0,11.6-4.4,13-10.3h18.8V422.3z M275.3,439.5c-2.2,0-4-1.8-4-4
		c0-2.2,1.8-4,4-4c2.2,0,4,1.8,4,4C279.3,437.7,277.5,439.5,275.3,439.5z M318.5,439.5c-2.2,0-4-1.8-4-4c0-2.2,1.8-4,4-4
		c2.2,0,4,1.8,4,4C322.5,437.7,320.7,439.5,318.5,439.5z M340.9,429.2h-10.6c-2.3-4.2-6.7-7.1-11.8-7.1c-5.3,0-10,3.2-12.1,7.7h-19
		c-2.1-4.5-6.8-7.7-12.1-7.7c-5.1,0-9.5,2.9-11.8,7.1h-7.1v-7.1c0-2.8,4.7-10.1,7.6-12.4c2.1-1.7,10-7.4,20.2-7.4h14.7
		c3.2,0,14.2,5.4,19.1,9.9l1.4,1.2h1.8c3,0,7.8,1.4,12.2,3.6c4.9,2.4,7.1,4.7,7.6,5.5V429.2z"/>
</g>
</svg>
