<?xml version="1.0" encoding="utf-8"?>
<!-- Generator: Adobe Illustrator 21.0.0, SVG Export Plug-In . SVG Version: 6.00 Build 0)  -->
<svg version="1.1" id="Слой_1" xmlns="http://www.w3.org/2000/svg" xmlns:xlink="http://www.w3.org/1999/xlink" x="0px" y="0px"
	 viewBox="0 0 595.3 841.9" style="enable-background:new 0 0 595.3 841.9;" xml:space="preserve">
<style type="text/css">
	.st0{fill:#000805;}
</style>
<g>
	<rect x="256.1" y="404" class="st0" width="19.5" height="9.5"/>
	<rect x="250.6" y="443.1" class="st0" width="19.5" height="9.5"/>
	<rect x="232" y="423.6" class="st0" width="31.9" height="9.5"/>
	<path class="st0" d="M348.5,419.9c-8.2-2.7-25.4-10.3-32.1-13.3v-15.8h-35.6v63.2H362l0.5-4.2C363.9,437.1,363.2,424.8,348.5,419.9
		z M353.4,444.4h-63.2v-44.2h16.7v12.5l2.8,1.3c0.2,0.1,1.2,0.6,2.9,1.3l-5.7,10.4l8.3,4.5l6-11.1c0.9,0.4,1.7,0.8,2.6,1.1l-5.2,9.6
		l8.3,4.5l5.6-10.4c0.9,0.4,1.9,0.8,2.8,1.2l-5,9.2l8.3,4.5l5.6-10.3c0.4,0.1,0.7,0.3,1.1,0.4C351.3,430.8,354.1,433.7,353.4,444.4z
		"/>
</g>
</svg>
