<?xml version="1.0" encoding="utf-8"?>
<!-- Generator: Adobe Illustrator 21.0.0, SVG Export Plug-In . SVG Version: 6.00 Build 0)  -->
<svg version="1.1" id="Слой_1" xmlns="http://www.w3.org/2000/svg" xmlns:xlink="http://www.w3.org/1999/xlink" x="0px" y="0px"
	 viewBox="0 0 595.3 841.9" style="enable-background:new 0 0 595.3 841.9;" xml:space="preserve">
<style type="text/css">
	.st0{fill:#000703;}
</style>
<g>
	<path class="st0" d="M349,422.6c0-5.7-6.2-10.1-11.4-12.9c-4.2-2.2-10.3-4.6-15.6-5c-5.9-4.8-17.6-11.1-23.8-11.1h-14.5
		c-12.8,0-22.3,6.6-25.8,9.4c-2.1,1.7-4.7,4.9-6.8,8.2c-2.7,4.3-4.1,8.1-4.1,11.2v16.2h15.1c1.4,5.8,6.6,10.1,12.8,10.1
		c6,0,11.1-4,12.7-9.5h17.3c1.6,5.5,6.7,9.5,12.7,9.5c6.2,0,11.5-4.3,12.8-10.1H349V422.6z M275,439.6c-2.2,0-3.9-1.8-3.9-3.9
		c0-2.2,1.8-3.9,3.9-3.9c2.2,0,3.9,1.8,3.9,3.9C278.9,437.9,277.1,439.6,275,439.6z M317.6,439.6c-2.2,0-3.9-1.8-3.9-3.9
		c0-2.2,1.8-3.9,3.9-3.9c2.2,0,3.9,1.8,3.9,3.9C321.5,437.9,319.8,439.6,317.6,439.6z M339.7,429.5h-10.5c-2.2-4.1-6.6-7-11.6-7
		c-5.3,0-9.8,3.1-12,7.6h-18.7c-2.1-4.5-6.7-7.6-12-7.6c-5,0-9.4,2.8-11.6,7h-7v-7c0-2.7,4.6-10,7.5-12.3c2.1-1.7,9.8-7.3,19.9-7.3
		h14.5c3.2,0,14,5.3,18.9,9.8l1.3,1.2h1.8c3,0,7.7,1.4,12,3.5c4.8,2.4,7,4.6,7.5,5.5V429.5z"/>
</g>
</svg>
