<?xml version="1.0" encoding="utf-8"?>
<!-- Generator: Adobe Illustrator 21.0.0, SVG Export Plug-In . SVG Version: 6.00 Build 0)  -->
<svg version="1.1" id="Слой_1" xmlns="http://www.w3.org/2000/svg" xmlns:xlink="http://www.w3.org/1999/xlink" x="0px" y="0px"
	 viewBox="0 0 595.3 841.9" style="enable-background:new 0 0 595.3 841.9;" xml:space="preserve">
<style type="text/css">
	.st0{fill:#000805;}
</style>
<g>
	<path class="st0" d="M274.7,428.1v-16.6h5.9v-8.9h-5.9v-5.3h8.9v-8.9h-17.8v39.8c-5.9,1.9-10.2,7.4-10.2,14
		c0,8.1,6.6,14.7,14.7,14.7c8.1,0,14.7-6.6,14.7-14.7C284.9,435.5,280.6,429.9,274.7,428.1z M270.2,447.7c-3.2,0-5.7-2.6-5.7-5.7
		c0-3.2,2.6-5.7,5.7-5.7c3.2,0,5.7,2.6,5.7,5.7C275.9,445.2,273.4,447.7,270.2,447.7z"/>
	<path class="st0" d="M340.5,408.9c0-12.8-10.4-23.2-23.3-23.2c-12.8,0-23.2,10.4-23.3,23.2h-0.1v46.8h46.8v-46.8H340.5z
		 M317.2,394.6c7.9,0,14.3,6.4,14.3,14.3h-28.6C302.9,401.1,309.3,394.6,317.2,394.6z M331.7,446.8h-28.9v-28.9h28.9V446.8z"/>
	<path class="st0" d="M313.7,433.1l-1.2,9.7h9.6l-1.2-9.7c1.7-1.1,2.8-3.1,2.8-5.2c0-3.5-2.8-6.3-6.3-6.3c-3.5,0-6.3,2.8-6.3,6.3
		C310.9,430,312,431.9,313.7,433.1z"/>
</g>
</svg>
