<?xml version="1.0" encoding="utf-8"?>
<!-- Generator: Adobe Illustrator 21.0.0, SVG Export Plug-In . SVG Version: 6.00 Build 0)  -->
<svg version="1.1" id="Слой_1" xmlns="http://www.w3.org/2000/svg" xmlns:xlink="http://www.w3.org/1999/xlink" x="0px" y="0px"
	 viewBox="0 0 595.3 841.9" style="enable-background:new 0 0 595.3 841.9;" xml:space="preserve">
<style type="text/css">
	.st0{fill:#000703;}
</style>
<g>
	<path class="st0" d="M334,414.3c0-18.3-18.4-29.2-36.2-29.2c-8.9,0-17.7,2.7-24.2,7.5c-7.5,5.5-11.6,13.2-11.6,21.8v42.4h72V414.3z
		 M307.7,435.9v10.5h-19.3v-10.5c0-4,5-6.4,9.6-6.4C302.6,429.5,307.7,432.1,307.7,435.9z M323.7,446.4H318v-10.5
		c0-8.7-7-14.5-15.1-16.2c2-1.5,3.3-3.8,3.3-6.5c0-4.5-3.6-8.1-8.1-8.1c-4.5,0-8.1,3.6-8.1,8.1c0,2.6,1.3,5,3.2,6.5
		c-8,1.7-15.1,7.5-15.1,16.2v10.5h-5.7v-32.1c0-11.9,13-18.9,25.5-18.9c6.8,0,13.5,2,18.4,5.5c3.4,2.5,7.6,6.8,7.6,13.4V446.4z"/>
</g>
</svg>
