<?xml version="1.0" encoding="utf-8"?>
<!-- Generator: Adobe Illustrator 21.0.0, SVG Export Plug-In . SVG Version: 6.00 Build 0)  -->
<svg version="1.1" id="Слой_1" xmlns="http://www.w3.org/2000/svg" xmlns:xlink="http://www.w3.org/1999/xlink" x="0px" y="0px"
	 viewBox="0 0 595.3 841.9" style="enable-background:new 0 0 595.3 841.9;" xml:space="preserve">
<style type="text/css">
	.st0{fill:#000703;}
</style>
<g>
	<path class="st0" d="M321.8,409.6c8.7,0,15.8-7.1,15.8-15.8c0-8.7-7.1-15.8-15.8-15.8c-8.7,0-15.8,7.1-15.8,15.8
		C306,402.5,313.1,409.6,321.8,409.6z M321.8,387.7c3.4,0,6.2,2.8,6.2,6.2c0,3.4-2.8,6.2-6.2,6.2c-3.4,0-6.2-2.8-6.2-6.2
		C315.6,390.4,318.4,387.7,321.8,387.7z"/>
	<path class="st0" d="M350.5,417.2c-2.1-2.9-6.3-6.3-13.7-6.3h-30.2c-5.1,0-9.6,2-12.7,5.7c-2.7,3.2-4.2,7.4-4.2,12v36.2h9.6v-36.2
		c0-3.7,1.9-8,7.3-8h6.7l5.1,7.5l-7.6,25.9l10.9,11.1l11.4-11.1l-7.8-26l5-7.3h6.4c2.8,0,4.8,0.8,6,2.5c1,1.4,1.6,3.5,1.6,5.9v35.9
		h9.6v-35.9C354,424.3,352.7,420.2,350.5,417.2z"/>
	<polygon class="st0" points="251.3,393.6 297.6,393.6 297.6,383.6 241.3,383.6 241.3,448.9 280.8,448.9 280.8,438.9 251.3,438.9 	
		"/>
</g>
</svg>
