<?xml version="1.0" encoding="utf-8"?>
<!-- Generator: Adobe Illustrator 21.0.0, SVG Export Plug-In . SVG Version: 6.00 Build 0)  -->
<svg version="1.1" id="Слой_1" xmlns="http://www.w3.org/2000/svg" xmlns:xlink="http://www.w3.org/1999/xlink" x="0px" y="0px"
	 viewBox="0 0 595.3 841.9" style="enable-background:new 0 0 595.3 841.9;" xml:space="preserve">
<style type="text/css">
	.st0{fill:#000703;}
</style>
<g>
	<path class="st0" d="M289.6,436.6c-0.8,0.1-1.7,0.2-2.6,0.3l-7.3,0.4l3.5,6.4c5.7,10.3,16.6,16.8,28.4,16.8c0,0,0,0,0,0
		c1.6,0,3.3-0.1,4.9-0.4c8.6-1.3,16.1-5.8,21.3-12.8c5.1-7,7.3-15.5,6-24.1c-2-13.4-12.2-24.2-25.5-26.9l-7.2-1.5l1.8,7.1
		c0.2,0.9,0.4,1.7,0.5,2.6C315.6,419.9,305,434.3,289.6,436.6z M322.8,407.7c6.2,3.4,10.6,9.6,11.7,16.8c0.9,6.1-0.6,12.2-4.3,17.2
		c-3.7,5-9.1,8.2-15.2,9.2c-1.2,0.2-2.3,0.3-3.5,0.3c0,0,0,0,0,0c-6.1,0-11.8-2.4-16.1-6.5C311.9,440.1,323.2,424.8,322.8,407.7z"/>
	<path class="st0" d="M261.3,414.7l-0.1,9.1l8.6-2.9l5.2,7.4l5.2-7.4l8.6,2.9l-0.1-9.1l8.7-2.7l-5.4-7.3l5.4-7.3l-8.6-2.7l0.1-9.1
		l-8.6,2.9l-5.2-7.4l-5.2,7.4l-8.6-2.9l0.1,9.1l-8.7,2.7l5.4,7.3l-5.4,7.3L261.3,414.7z M268.3,400l-0.1-4.4l4.2,1.4l2.6-3.6
		l2.6,3.6l4.2-1.4l-0.1,4.4l4.2,1.3l-2.6,3.5l2.6,3.5l-4.2,1.3l0.1,4.4l-4.2-1.4l-2.6,3.6l-2.6-3.6l-4.2,1.4l0.1-4.4l-4.2-1.3
		l2.6-3.5l-2.6-3.5L268.3,400z"/>
</g>
</svg>
