<?xml version="1.0" encoding="utf-8"?>
<!-- Generator: Adobe Illustrator 21.0.0, SVG Export Plug-In . SVG Version: 6.00 Build 0)  -->
<svg version="1.1" id="Слой_1" xmlns="http://www.w3.org/2000/svg" xmlns:xlink="http://www.w3.org/1999/xlink" x="0px" y="0px"
	 viewBox="0 0 595.3 841.9" style="enable-background:new 0 0 595.3 841.9;" xml:space="preserve">
<style type="text/css">
	.st0{fill:#000805;}
</style>
<g>
	<path class="st0" d="M297.3,414.8c-8.2,0-14.9,6.7-14.9,14.9c0,8.2,6.7,14.9,14.9,14.9c8.2,0,14.9-6.7,14.9-14.9
		C312.2,421.5,305.5,414.8,297.3,414.8z M297.3,434.7c-2.8,0-5-2.3-5-5s2.3-5,5-5c2.8,0,5,2.3,5,5S300.1,434.7,297.3,434.7z"/>
	<path class="st0" d="M340.7,402.4l-13.6,11.3c-2.3-2.3-4.7-4.2-7.3-5.9l8.2-16.1l-8.8-4.5l-8.2,16.2c-2.9-1-5.8-1.7-8.8-2.1v-17.5
		h-9.8v17.5c-2.8,0.3-5.5,1-8.1,1.9l-8.8-16l-8.6,4.7l8.5,15.6c-2.7,1.7-5.2,3.7-7.6,6l-13.6-11l-6.2,7.6l13.4,10.9
		c-2.6,3.7-3.9,6.4-4,6.6l-1,2.1l1,2.1c0.1,0.3,3.2,6.8,9.5,13.2c8.6,8.7,19.1,13.3,30.4,13.3s21.9-4.6,30.4-13.3
		c6.3-6.4,9.4-12.9,9.5-13.2l1-2.1l-1-2.1c-0.1-0.2-1.3-2.8-3.8-6.3L347,410L340.7,402.4z M320.5,438.3
		c-6.7,6.7-14.5,10.1-23.2,10.1s-16.5-3.4-23.2-10.1c-3.2-3.2-5.5-6.5-6.7-8.6c3.2-5.3,13-18.8,29.9-18.8c8.6,0,16.4,3.4,23.2,10.2
		c3.3,3.3,5.5,6.6,6.7,8.6C326,431.7,323.8,435,320.5,438.3z"/>
</g>
</svg>
