<?xml version="1.0" encoding="utf-8"?>
<!-- Generator: Adobe Illustrator 21.0.0, SVG Export Plug-In . SVG Version: 6.00 Build 0)  -->
<svg version="1.1" id="Слой_1" xmlns="http://www.w3.org/2000/svg" xmlns:xlink="http://www.w3.org/1999/xlink" x="0px" y="0px"
	 viewBox="0 0 595.3 841.9" style="enable-background:new 0 0 595.3 841.9;" xml:space="preserve">
<style type="text/css">
	.st0{fill:#000805;}
</style>
<path class="st0" d="M266,449.7c6.7,0,13.2-3.8,16.8-9.7h4.5c3.6,5.9,10.1,9.7,17.1,9.7c11,0,20-9,20-20v-12.9h0l9.1-10.9
	c1.9-2.3,5.8-5.7,10.3-2.9l5.2-8.3c-7.6-4.7-16.6-2.8-23,4.9l-9.9,11.9H259l4.7-5.6c1.9-2.3,5.8-5.7,10.3-2.9l5.2-8.3
	c-7.6-4.7-16.6-2.8-23,4.9l-9.9,11.9H246v5.3h0v12.9C246,440.7,255,449.7,266,449.7z M304.5,439.8c-4.2,0-8-2.6-9.5-6.5l-1.2-3.2
	h-17.2l-1.3,3c-1.4,3.3-4.8,6.7-9.4,6.7c-5.6,0-10.2-4.6-10.2-10.2v-8.4h58.8v8.4C314.6,435.3,310.1,439.8,304.5,439.8z"/>
</svg>
